<svg xmlns="http://www.w3.org/2000/svg" version="1.1" viewBox="0 0 500 500">
<path d="M0 0 C165 0 330 0 500 0 C500 165 500 330 500 500 C335 500 170 500 0 500 C0 335 0 170 0 0 Z " fill="#F7F2E6" transform="translate(0,0)"/>
<path d="M0 0 C6.15234375 -0.09765625 6.15234375 -0.09765625 8 0 C8.495 0.495 8.495 0.495 9 1 C12.03722557 1.24479131 15.07340606 1.38408365 18.1171875 1.5234375 C21 2 21 2 22.90234375 3.37109375 C24 5 24 5 23.6875 7.6875 C23.460625 8.450625 23.23375 9.21375 23 10 C21.1746875 10.0928125 21.1746875 10.0928125 19.3125 10.1875 C16.23249716 10.61045814 14.97009248 11.02017019 12.3125 12.8125 C9.53477754 16.64125258 8.03943796 20.54580572 6.3046875 24.92578125 C2.94521429 32.84166572 -1.15958561 38.25532447 -9 42 C-12.47325181 43.1577506 -15.36067448 43.06866652 -19 43 C-20.00295086 56.34282847 -20.11527017 69.62334 -20 83 C-20.99 83 -21.98 83 -23 83 C-23.13277344 81.86820312 -23.26554687 80.73640625 -23.40234375 79.5703125 C-23.5805342 78.08851821 -23.75893029 76.60674864 -23.9375 75.125 C-24.06801758 74.00544922 -24.06801758 74.00544922 -24.20117188 72.86328125 C-24.63326063 68.8046769 -24.63326063 68.8046769 -26 65 C-26.23274209 62.12089412 -26.41972757 59.25853505 -26.5625 56.375 C-26.60568359 55.57320313 -26.64886719 54.77140625 -26.69335938 53.9453125 C-26.79951457 51.9637489 -26.90026855 49.98189729 -27 48 C-27.66 48 -28.32 48 -29 48 C-29.13535156 48.71027344 -29.27070313 49.42054688 -29.41015625 50.15234375 C-29.997288 52.98690696 -30.68709376 55.76694516 -31.4375 58.5625 C-31.68371094 59.49191406 -31.92992187 60.42132813 -32.18359375 61.37890625 C-33 64 -33 64 -34.05859375 65.98046875 C-35.27437537 68.58859779 -35.42061372 70.88859213 -35.625 73.75 C-35.69976562 74.73484375 -35.77453125 75.7196875 -35.8515625 76.734375 C-35.90054688 77.48203125 -35.94953125 78.2296875 -36 79 C-36.99 79 -37.98 79 -39 79 C-38.88964039 75.60352587 -38.75912556 72.20811211 -38.625 68.8125 C-38.5940625 67.85279297 -38.563125 66.89308594 -38.53125 65.90429688 C-38.49257812 64.97294922 -38.45390625 64.04160156 -38.4140625 63.08203125 C-38.3826416 62.22843018 -38.3512207 61.3748291 -38.31884766 60.49536133 C-37.96570478 57.73159917 -37.09813365 55.55015803 -36 53 C-35.56111075 50.79745973 -35.56111075 50.79745973 -35.375 48.6875 C-35.189375 46.8621875 -35.189375 46.8621875 -35 45 C-35.845625 45.06960937 -36.69125 45.13921875 -37.5625 45.2109375 C-44.67644859 45.55046686 -49.03076376 45.37393843 -54.4140625 40.5078125 C-54.93742187 40.01023438 -55.46078125 39.51265625 -56 39 C-56.99 38.34 -57.98 37.68 -59 37 C-58.87625 38.051875 -58.7525 39.10375 -58.625 40.1875 C-58.57046133 44.5817589 -60.0894418 47.55517762 -62.0625 51.4375 C-64.87017161 57.17203683 -65.88019062 60.8719713 -64 67 C-63.06586464 69.6964732 -62.03691843 72.34007882 -61 75 C-61 76.32 -61 77.64 -61 79 C-61.99 79 -62.98 79 -64 79 C-64.48919922 77.89591797 -64.48919922 77.89591797 -64.98828125 76.76953125 C-65.42527344 75.79371094 -65.86226562 74.81789063 -66.3125 73.8125 C-66.74175781 72.84957031 -67.17101562 71.88664062 -67.61328125 70.89453125 C-68.94627131 67.9827351 -68.94627131 67.9827351 -70.6484375 65.3203125 C-72.40683952 62.30155297 -72.35235464 60.45307544 -72 57 C-71 53.625 -71 53.625 -70 51 C-70.27714844 51.62648437 -70.55429688 52.25296875 -70.83984375 52.8984375 C-71.20207031 53.71570313 -71.56429687 54.53296875 -71.9375 55.375 C-72.29714844 56.18710937 -72.65679687 56.99921875 -73.02734375 57.8359375 C-73.6569903 59.23683785 -74.31312642 60.62625284 -75 62 C-75.08372659 63.52148326 -75.10730027 65.04655778 -75.09765625 66.5703125 C-75.09443359 67.46621094 -75.09121094 68.36210937 -75.08789062 69.28515625 C-75.07951172 70.22230469 -75.07113281 71.15945313 -75.0625 72.125 C-75.05798828 73.06988281 -75.05347656 74.01476562 -75.04882812 74.98828125 C-75.03702357 77.32558387 -75.02055759 79.66276061 -75 82 C-76.32 82 -77.64 82 -79 82 C-79.28431071 77.43895892 -79.52145648 72.87664846 -79.75 68.3125 C-79.83121094 67.01892578 -79.91242188 65.72535156 -79.99609375 64.39257812 C-80.05410156 63.14541016 -80.11210938 61.89824219 -80.171875 60.61328125 C-80.2347168 59.46641846 -80.29755859 58.31955566 -80.36230469 57.13793945 C-79.9172508 53.28330492 -78.44107236 51.93118098 -76 49 C-75.45745139 46.40492418 -75.45745139 46.40492418 -75.609375 43.69921875 C-75.62226562 42.72275391 -75.63515625 41.74628906 -75.6484375 40.74023438 C-75.69871094 39.22913086 -75.69871094 39.22913086 -75.75 37.6875 C-75.76804687 36.66076172 -75.78609375 35.63402344 -75.8046875 34.57617188 C-75.85168937 32.04982115 -75.91737728 29.52539531 -76 27 C-76.02578125 27.67546875 -76.0515625 28.3509375 -76.078125 29.046875 C-76.54716981 36.42367067 -76.54716981 36.42367067 -79.0625 39.625 C-80.0215625 40.305625 -80.0215625 40.305625 -81 41 C-78.66553696 23.94203761 -78.66553696 23.94203761 -73.87109375 19.38671875 C-69.19219619 15.91905981 -64.48546727 12.74564018 -58.875 11.0625 C-55.73025521 9.90031171 -54.5310224 8.65141823 -52.1875 6.3125 C-49.35134894 3.76103834 -47.56626643 2.40995721 -43.6875 2.5 C-38.24992331 3.58187079 -34.55544657 7.21303683 -30.50390625 10.796875 C-27.98769063 13.12593831 -27.98769063 13.12593831 -24.75 15.0625 C-22.03758036 16.97352293 -20.5851825 18.72275199 -18.5625 21.3125 C-15.747886 24.68959998 -15.747886 24.68959998 -11.3125 25.375 C-8.1293256 24.05368233 -6.49370874 23.09664262 -4.7734375 20.08984375 C-3.39875997 16.37543729 -2.91515556 12.52135576 -2.39453125 8.609375 C-2 6 -2 6 -1 4 C-0.34 4 0.32 4 1 4 C0.505 2.02 0.505 2.02 0 0 Z " fill="#344239" transform="translate(182,204)"/>
<path d="M0 0 C2.8041662 1.23383313 4.58490656 2.51023763 6.9375 4.5625 C11.93820638 8.29109686 17.98845503 7.90056091 24 8 C24.25216786 15.43895183 24.25216786 15.43895183 23.02734375 18.1640625 C21.53257624 22.29030285 21.57215446 26.32929344 21.4375 30.6875 C21.37766209 32.3998827 21.31404401 34.11213877 21.24609375 35.82421875 C21.21020142 36.95476685 21.21020142 36.95476685 21.17358398 38.1081543 C21 40 21 40 20 42 C20.99 42 21.98 42 23 42 C22.94779297 40.91332031 22.94779297 40.91332031 22.89453125 39.8046875 C22.72874995 33.88392674 23.04062039 30.23582547 26 25 C26.59924413 22.72124171 27.06307567 20.43463616 27.52734375 18.125 C28.08460283 15.61963686 28.94470148 13.33673245 30 11 C30.66 11 31.32 11 32 11 C33.11446985 14.34340956 33.25115579 17.16977767 33.4375 20.6875 C33.69087816 24.67207587 33.94353966 28.41243883 35.0625 32.25 C36.22762275 36.910491 36.17610314 41.22564831 36 46 C36.99 46 37.98 46 39 46 C39.33 44.68 39.66 43.36 40 42 C40 42.99 40 43.98 40 45 C40.54785156 44.94199219 41.09570312 44.88398438 41.66015625 44.82421875 C55.1633235 44.05574582 68.04225896 50.6948393 79 58 C79 58.66 79 59.32 79 60 C37.42 60 -4.16 60 -47 60 C-41.37148803 54.37148803 -41.37148803 54.37148803 -38.22265625 52.83203125 C-37.54396484 52.49623047 -36.86527344 52.16042969 -36.16601562 51.81445312 C-35.47185547 51.48380859 -34.77769531 51.15316406 -34.0625 50.8125 C-33.37220703 50.47025391 -32.68191406 50.12800781 -31.97070312 49.77539062 C-26.69410213 47.1996091 -21.9699409 45 -16 45 C-16.15855469 44.14921875 -16.31710938 43.2984375 -16.48046875 42.421875 C-17.9107559 33.0013371 -18.16019165 23.35295237 -13 15 C-12.01 14.34 -11.02 13.68 -10 13 C-10.875 17.75 -10.875 17.75 -12 20 C-12.77531297 25.29797196 -10.92951372 28.45081046 -8.2890625 32.8515625 C-5 38.33333333 -5 38.33333333 -5 42 C-4.01 42 -3.02 42 -2 42 C-2.3609375 40.98679687 -2.721875 39.97359375 -3.09375 38.9296875 C-3.56298419 37.57829303 -4.03170716 36.22672096 -4.5 34.875 C-4.73847656 34.20984375 -4.97695312 33.5446875 -5.22265625 32.859375 C-7.0747301 27.46190263 -7.94759897 23.33567208 -5.72265625 17.8515625 C-5.17480469 16.78679687 -4.62695312 15.72203125 -4.0625 14.625 C-1.59538529 9.55725614 -0.22009753 5.61248695 0 0 Z " fill="#6C8E74" transform="translate(123,241)"/>
<path d="M0 0 C4.40245561 2.23394244 6.04165035 4.85187154 7.83984375 9.30859375 C8.18041992 12.74365234 8.18041992 12.74365234 8.1328125 16.45703125 C8.12856766 17.11442291 8.12432281 17.77181458 8.11994934 18.4491272 C8.10329352 20.52771766 8.06566995 22.60530149 8.02734375 24.68359375 C8.0122798 26.10154839 7.9985944 27.51951839 7.98632812 28.9375 C7.95343413 32.39485265 7.9017454 35.85162478 7.83984375 39.30859375 C5.52984375 39.30859375 3.21984375 39.30859375 0.83984375 39.30859375 C0.50984375 38.31859375 0.17984375 37.32859375 -0.16015625 36.30859375 C-0.96453125 36.96859375 -1.76890625 37.62859375 -2.59765625 38.30859375 C-6.64394891 40.98067381 -10.45258091 41.12588114 -15.16015625 40.30859375 C-18.52191855 39.06066684 -21.36980044 37.57369348 -23.32421875 34.4453125 C-24.77257932 30.74319459 -24.83551337 27.20756267 -24.16015625 23.30859375 C-20.36400045 18.06096662 -15.91123222 16.81619547 -9.73046875 15.67578125 C-8.02503906 15.43214844 -8.02503906 15.43214844 -6.28515625 15.18359375 C-5.13273437 15.01601562 -3.9803125 14.8484375 -2.79296875 14.67578125 C-1.48972656 14.49402344 -1.48972656 14.49402344 -0.16015625 14.30859375 C-0.41576948 11.96547245 -0.75286397 9.63015972 -1.16015625 7.30859375 C-4.6102951 5.58352433 -8.3876621 5.80340758 -12.16015625 6.30859375 C-14.89234818 8.22718542 -14.89234818 8.22718542 -17.16015625 10.30859375 C-19.97265625 10.55859375 -19.97265625 10.55859375 -22.16015625 10.30859375 C-22.49015625 9.31859375 -22.82015625 8.32859375 -23.16015625 7.30859375 C-18.02531405 -0.90715378 -8.98764505 -2.87669652 0 0 Z " fill="#374331" transform="translate(301.16015625,238.69140625)"/>
<path d="M0 0 C2.8041662 1.23383313 4.58490656 2.51023763 6.9375 4.5625 C11.93820638 8.29109686 17.98845503 7.90056091 24 8 C24.25056377 15.39163117 24.25056377 15.39163117 23.0234375 18.37109375 C21.82038888 21.4613675 21.65706848 24.06870849 21.5 27.375 C21.25673112 32.47148302 20.46169521 35.88406676 19 41 C12.4 41 5.8 41 -1 41 C-4.94809848 34.09082766 -7.57559297 28.95098762 -7 21 C-5.72265625 17.8515625 -5.72265625 17.8515625 -4.0625 14.625 C-1.59538529 9.55725614 -0.22009753 5.61248695 0 0 Z " fill="#F2EFE2" transform="translate(123,241)"/>
<path d="M0 0 C3.16727951 2.31752159 4.64920984 4.44380625 6.5625 7.875 C7.01660156 11.40185547 7.01660156 11.40185547 6.953125 15.2421875 C6.94746521 15.92177521 6.94180542 16.60136292 6.93597412 17.30154419 C6.91375351 19.45177549 6.86359198 21.60028074 6.8125 23.75 C6.79241614 25.2161216 6.77416868 26.68226958 6.7578125 28.1484375 C6.71393811 31.72451008 6.64501443 35.29958631 6.5625 38.875 C4.5825 38.875 2.6025 38.875 0.5625 38.875 C0.2325 37.555 -0.0975 36.235 -0.4375 34.875 C-1.200625 35.514375 -1.96375 36.15375 -2.75 36.8125 C-6.54574341 39.72551239 -9.61474126 40.22625381 -14.375 40.15625 C-18.82977927 39.5487801 -21.57832287 36.9346518 -24.3125 33.5625 C-25.78242852 30.05100409 -25.90945807 27.65066459 -25.4375 23.875 C-23.46598785 20.10341154 -21.32516751 18.60568724 -17.4375 17.1875 C-11.87651453 15.55355435 -6.16566159 14.69884727 -0.4375 13.875 C-0.88453986 9.39616304 -0.88453986 9.39616304 -3.4375 5.875 C-5.77456139 5.59372377 -5.77456139 5.59372377 -8.375 5.6875 C-9.25027344 5.69394531 -10.12554687 5.70039063 -11.02734375 5.70703125 C-13.5812675 5.78430757 -13.5812675 5.78430757 -16.4375 6.875 C-16.7675 7.865 -17.0975 8.855 -17.4375 9.875 C-19.7475 9.545 -22.0575 9.215 -24.4375 8.875 C-19.15884012 -1.12667135 -10.46479887 -3.42484327 0 0 Z " fill="#333F2C" transform="translate(368.4375,239.125)"/>
<path d="M0 0 C4.22720494 1.92432464 7.1811102 4.21239014 9.59375 8.265625 C10.34375 11.578125 10.34375 11.578125 10.59375 14.265625 C8.28375 14.265625 5.97375 14.265625 3.59375 14.265625 C3.18125 13.316875 2.76875 12.368125 2.34375 11.390625 C0.48560815 8.07251455 -0.00969362 7.54461248 -3.40625 6.265625 C-8.19339632 5.59620291 -12.17942951 5.65221476 -16.53125 7.828125 C-18.66992187 10.23389713 -18.66992187 10.23389713 -19.09375 13.765625 C-18.76235176 17.42659866 -18.76235176 17.42659866 -15.86328125 19.33203125 C-11.48261217 21.78223599 -7.15697764 22.98700512 -2.328125 24.24414062 C3.41275216 25.87108768 7.52947572 28.22169514 10.9765625 33.3046875 C12.51525849 38.19345578 11.14443751 43.04952342 9.09375 47.578125 C4.15752463 52.88456728 -1.3151284 54.49431192 -8.46875 54.765625 C-15.33996073 54.51178409 -19.88088653 52.66148265 -24.84375 47.953125 C-26.73008385 44.70863078 -27.11487852 41.98061135 -27.40625 38.265625 C-25.09625 38.265625 -22.78625 38.265625 -20.40625 38.265625 C-20.220625 39.379375 -20.035 40.493125 -19.84375 41.640625 C-18.78537976 45.52693554 -18.78537976 45.52693554 -15.28125 46.703125 C-7.41217726 47.92029545 -7.41217726 47.92029545 0.03125 45.390625 C3.02550026 42.9075882 3.4545234 42.18054266 4.03125 38.390625 C3.92792194 35.04673909 3.92792194 35.04673909 1.00390625 33.1953125 C-2.49015188 31.21814788 -5.51916751 30.22034702 -9.40625 29.265625 C-15.83755622 27.68600593 -20.4519174 25.57996623 -24.78125 20.453125 C-26.73257523 16.62552551 -27.0127599 14.51119429 -26.40625 10.265625 C-21.33961334 -0.28986804 -10.85926906 -3.31419251 0 0 Z " fill="#34412E" transform="translate(258.40625,224.734375)"/>
<path d="M0 0 C0.79921875 0.01804688 1.5984375 0.03609375 2.421875 0.0546875 C3.02515625 0.07789063 3.6284375 0.10109375 4.25 0.125 C4.25 2.105 4.25 4.085 4.25 6.125 C2.5484375 6.3415625 2.5484375 6.3415625 0.8125 6.5625 C-2.55777201 6.73671478 -2.55777201 6.73671478 -3.75 8.125 C-3.98075082 9.47247084 -4.16153063 10.82877565 -4.3125 12.1875 C-4.456875 13.486875 -4.60125 14.78625 -4.75 16.125 C-2.11 16.125 0.53 16.125 3.25 16.125 C3.25 17.775 3.25 19.425 3.25 21.125 C0.61 21.125 -2.03 21.125 -4.75 21.125 C-4.75 32.345 -4.75 43.565 -4.75 55.125 C-7.06 55.125 -9.37 55.125 -11.75 55.125 C-11.75 43.905 -11.75 32.685 -11.75 21.125 C-14.06 21.125 -16.37 21.125 -18.75 21.125 C-18.75 19.475 -18.75 17.825 -18.75 16.125 C-16.44 16.125 -14.13 16.125 -11.75 16.125 C-11.78480469 15.53332031 -11.81960938 14.94164062 -11.85546875 14.33203125 C-12.02323815 9.43476248 -12.06859893 6.03620588 -8.75 2.125 C-5.73448212 0.25979821 -3.51918691 -0.1035055 0 0 Z " fill="#384331" transform="translate(333.75,222.875)"/>
<path d="M0 0 C0 1.98 0 3.96 0 6 C-1.5778125 6.0928125 -1.5778125 6.0928125 -3.1875 6.1875 C-7.77907375 7.16603211 -9.08542735 8.38185661 -12 12 C-12.77123439 15.17047234 -12.77123439 15.17047234 -12.70703125 18.61328125 C-12.73603516 19.86044922 -12.76503906 21.10761719 -12.79492188 22.39257812 C-12.80072266 23.68615234 -12.80652344 24.97972656 -12.8125 26.3125 C-12.83763672 27.62541016 -12.86277344 28.93832031 -12.88867188 30.29101562 C-12.94751968 33.52764489 -12.98381937 36.76292218 -13 40 C-14.98 40 -16.96 40 -19 40 C-19 27.13 -19 14.26 -19 1 C-17.02 1 -15.04 1 -13 1 C-12.67 1.99 -12.34 2.98 -12 4 C-11.319375 3.34 -10.63875 2.68 -9.9375 2 C-6.35542625 -0.43885872 -4.24480464 -0.33292585 0 0 Z " fill="#2D3927" transform="translate(405,238)"/>
<path d="M0 0 C0.66 0 1.32 0 2 0 C3.50641657 4.51924972 3.44506142 9.11186629 3.71875 13.84765625 C3.79722339 16.89941325 3.79722339 16.89941325 5 19 C5.0716735 21.55157655 5.09308442 24.07472971 5.0625 26.625 C5.05798828 27.33140625 5.05347656 28.0378125 5.04882812 28.765625 C5.03703875 30.51045275 5.01910324 32.255237 5 34 C0.97007218 33.44687265 -3.02022924 32.8441938 -7 32 C-7.30009334 25.13119698 -7.51424403 20.08234544 -4 14 C-3.39972371 11.72140019 -2.93694381 9.43473308 -2.47265625 7.125 C-1.91539717 4.61963686 -1.05529852 2.33673245 0 0 Z " fill="#EEECDE" transform="translate(153,252)"/>
<path d="M0 0 C0.44811859 8.81299886 0.44811859 8.81299886 -3 13 C-5.91158816 14.77687928 -8.16666186 15.29526224 -11.5625 15.3125 C-12.70912109 15.33763672 -12.70912109 15.33763672 -13.87890625 15.36328125 C-16.53491924 14.908384 -17.39887648 14.13649919 -19 12 C-19.4375 9 -19.4375 9 -19 6 C-15.75906592 2.75104381 -12.21877168 2.17549 -7.8125 1.3125 C-6.56082031 1.06113281 -5.30914062 0.80976563 -4.01953125 0.55078125 C-1 0 -1 0 0 0 Z " fill="#F0EBDF" transform="translate(369,258)"/>
<path d="M0 0 C0.48867825 7.20800421 0.48867825 7.20800421 -1.8125 10.9375 C-5.22540272 14.1553797 -8.4506573 14.34913857 -13.05859375 14.28125 C-15 14 -15 14 -17.5 12.3125 C-19.30056348 9.5366313 -19.66499679 8.24185935 -19 5 C-15.90181879 2.04098059 -13.11393973 1.41800613 -8.9375 0.8125 C-7.89464844 0.65394531 -6.85179687 0.49539063 -5.77734375 0.33203125 C-3 0 -3 0 0 0 Z " fill="#F2EBE0" transform="translate(302,259)"/>
<path d="M0 0 C0.33 0.99 0.66 1.98 1 3 C0.690625 3.598125 0.38125 4.19625 0.0625 4.8125 C-1.42688888 7.87888887 -1.44966907 9.59536278 -1 13 C0.11143843 15.3757513 1.36176653 17.60294422 2.7109375 19.8515625 C6 25.33333333 6 25.33333333 6 29 C2.7 29.66 -0.6 30.32 -4 31 C-7.20282272 24.17158195 -7.12161819 16.1531617 -5.171875 8.93359375 C-3.79998619 5.41684892 -2.68511674 2.68511674 0 0 Z " fill="#EFEDE0" transform="translate(112,254)"/>
<path d="M0 0 C0.49686384 5.96236611 -0.61357874 10.02977556 -4 15 C-7.23270327 18.58697212 -10.23374768 20.23385115 -15 21 C-13.95523137 18.24205169 -12.89040538 15.49497644 -11.8125 12.75 C-11.52052734 11.97269531 -11.22855469 11.19539062 -10.92773438 10.39453125 C-8.78026251 4.99121494 -6.54398183 0 0 0 Z " fill="#D0D3C5" transform="translate(200,214)"/>
<path d="M0 0 C0.66 0.33 1.32 0.66 2 1 C1.979375 1.804375 1.95875 2.60875 1.9375 3.4375 C1.70366379 5.93354885 1.70366379 5.93354885 3 7 C7.14276875 7.24733137 7.14276875 7.24733137 11 6 C9.84826645 8.46800047 8.95216435 10.04783565 7 12 C3.5 11.8125 3.5 11.8125 0 11 C-2.30163882 7.54754176 -2.34490322 6.05261287 -2 2 C-1.34 1.34 -0.68 0.68 0 0 Z " fill="#7E9781" transform="translate(167,204)"/>
<path d="M0 0 C0.33 0 0.66 0 1 0 C1.33 5.61 1.66 11.22 2 17 C0.68 17 -0.64 17 -2 17 C-2.05418326 14.91695462 -2.09287551 12.83350232 -2.125 10.75 C-2.14820312 9.58984375 -2.17140625 8.4296875 -2.1953125 7.234375 C-2.0103949 4.17213954 -1.60823023 2.55797249 0 0 Z " fill="#455147" transform="translate(105,269)"/>
<path d="M0 0 C0.66666667 1.33333333 1.33333333 2.66666667 2 4 C2.556875 4.99 2.556875 4.99 3.125 6 C4 8 4 8 4 12 C3.01 12 2.02 12 1 12 C-0.32 8.37 -1.64 4.74 -3 1 C-2.01 0.67 -1.02 0.34 0 0 Z " fill="#444F46" transform="translate(117,271)"/>
<path d="M0 0 C0.99 0.33 1.98 0.66 3 1 C2.67 5.29 2.34 9.58 2 14 C1.01 14 0.02 14 -1 14 C-1.08333357 9.1666528 -0.95261487 4.76307437 0 0 Z " fill="#3F4A40" transform="translate(144,269)"/>
<path d="M0 0 C0.99 0.33 1.98 0.66 3 1 C2 3 2 3 1 4 C0.79635438 6.48447657 0.68089929 8.96659252 0.57421875 11.45703125 C-0.14851124 14.65769265 -1.54637333 15.89899033 -4 18 C-3.52450066 15.37428665 -3.04477433 12.7494696 -2.5625 10.125 C-2.42779297 9.37863281 -2.29308594 8.63226563 -2.15429688 7.86328125 C-1.11328125 2.2265625 -1.11328125 2.2265625 0 0 Z " fill="#50544C" transform="translate(105,227)"/>
<path d="M0 0 C1.15957207 3.47871621 0.77456651 4.34219645 -0.4375 7.6875 C-0.72496094 8.49574219 -1.01242188 9.30398438 -1.30859375 10.13671875 C-1.53675781 10.75160156 -1.76492187 11.36648438 -2 12 C-2.66 12 -3.32 12 -4 12 C-4.66 13.32 -5.32 14.64 -6 16 C-5.47275413 10.85935281 -3.8074944 3.8074944 0 0 Z " fill="#CBCDC1" transform="translate(112,254)"/>
<path d="M0 0 C0.33 0 0.66 0 1 0 C1.0810206 2.10353495 1.13919907 4.20795952 1.1875 6.3125 C1.22230469 7.48425781 1.25710937 8.65601563 1.29296875 9.86328125 C1 13 1 13 -0.51171875 14.91796875 C-1.00285156 15.27503906 -1.49398437 15.63210937 -2 16 C-2.66 15.67 -3.32 15.34 -4 15 C-3.34 14.01 -2.68 13.02 -2 12 C-1.58035513 9.55776101 -1.58035513 9.55776101 -1.4375 6.9375 C-1.09605489 2.19210978 -1.09605489 2.19210978 0 0 Z " fill="#E2E5DB" transform="translate(106,229)"/>
<path d="M0 0 C0.66 0 1.32 0 2 0 C0.375 6.75 0.375 6.75 -3 9 C-2.01 6.03 -1.02 3.06 0 0 Z " fill="#D0D4C9" transform="translate(153,252)"/>
</svg>